<?xml version="1.0" encoding="UTF-8" standalone="no"?>
<!DOCTYPE svg PUBLIC "-//W3C//DTD SVG 1.1//EN"
 "http://www.w3.org/Graphics/SVG/1.1/DTD/svg11.dtd">
<!-- Generated by graphviz version 2.43.0 (0)
 -->
<!-- Title: pastafarianism Pages: 1 -->
<svg width="898pt" height="116pt"
 viewBox="0.00 0.00 897.80 116.00" xmlns="http://www.w3.org/2000/svg" xmlns:xlink="http://www.w3.org/1999/xlink">
<g id="graph0" class="graph" transform="scale(1 1) rotate(0) translate(4 112)">
<title>pastafarianism</title>
<polygon fill="white" stroke="transparent" points="-4,4 -4,-112 893.8,-112 893.8,4 -4,4"/>
<!-- Navigate Waypoints Sequence -->
<g id="node1" class="node">
<title>Navigate Waypoints Sequence</title>
<polygon fill="orange" stroke="black" points="477.3,-108 341.3,-108 341.3,-72 477.3,-72 477.3,-108"/>
<text text-anchor="middle" x="409.3" y="-87.8" font-family="Times,serif" font-size="9.00">Ⓜ Navigate Waypoints Sequence</text>
</g>
<!-- Load Waypoints -->
<g id="node2" class="node">
<title>Load Waypoints</title>
<ellipse fill="gray" stroke="black" cx="43.3" cy="-18" rx="43.1" ry="18"/>
<text text-anchor="middle" x="43.3" y="-15.8" font-family="Times,serif" font-size="9.00">Load Waypoints</text>
</g>
<!-- Navigate Waypoints Sequence&#45;&gt;Load Waypoints -->
<g id="edge1" class="edge">
<title>Navigate Waypoints Sequence&#45;&gt;Load Waypoints</title>
<path fill="none" stroke="black" d="M341.02,-80.46C277.01,-71.75 178.91,-56.6 95.3,-36 91.93,-35.17 88.45,-34.23 84.98,-33.22"/>
<polygon fill="black" stroke="black" points="85.85,-29.83 75.26,-30.27 83.81,-36.53 85.85,-29.83"/>
</g>
<!-- Check Goal Received -->
<g id="node3" class="node">
<title>Check Goal Received</title>
<ellipse fill="gray" stroke="black" cx="158.3" cy="-18" rx="53.89" ry="18"/>
<text text-anchor="middle" x="158.3" y="-15.8" font-family="Times,serif" font-size="9.00">Check Goal Received</text>
</g>
<!-- Navigate Waypoints Sequence&#45;&gt;Check Goal Received -->
<g id="edge2" class="edge">
<title>Navigate Waypoints Sequence&#45;&gt;Check Goal Received</title>
<path fill="none" stroke="black" d="M348.22,-71.97C305.28,-59.99 248.53,-44.16 208.28,-32.94"/>
<polygon fill="black" stroke="black" points="209,-29.5 198.42,-30.19 207.12,-36.25 209,-29.5"/>
</g>
<!-- Set Destination -->
<g id="node4" class="node">
<title>Set Destination</title>
<ellipse fill="gray" stroke="black" cx="271.3" cy="-18" rx="40.98" ry="18"/>
<text text-anchor="middle" x="271.3" y="-15.8" font-family="Times,serif" font-size="9.00">Set Destination</text>
</g>
<!-- Navigate Waypoints Sequence&#45;&gt;Set Destination -->
<g id="edge3" class="edge">
<title>Navigate Waypoints Sequence&#45;&gt;Set Destination</title>
<path fill="none" stroke="black" d="M375.54,-71.88C354.55,-61.23 327.61,-47.56 306.38,-36.79"/>
<polygon fill="black" stroke="black" points="307.86,-33.62 297.36,-32.22 304.7,-39.87 307.86,-33.62"/>
</g>
<!-- Plan Path -->
<g id="node5" class="node">
<title>Plan Path</title>
<ellipse fill="gray" stroke="black" cx="359.3" cy="-18" rx="28.74" ry="18"/>
<text text-anchor="middle" x="359.3" y="-15.8" font-family="Times,serif" font-size="9.00">Plan Path</text>
</g>
<!-- Navigate Waypoints Sequence&#45;&gt;Plan Path -->
<g id="edge4" class="edge">
<title>Navigate Waypoints Sequence&#45;&gt;Plan Path</title>
<path fill="none" stroke="black" d="M396.94,-71.7C390.74,-63.02 383.14,-52.37 376.39,-42.92"/>
<polygon fill="black" stroke="black" points="379.16,-40.77 370.5,-34.67 373.46,-44.84 379.16,-40.77"/>
</g>
<!-- Check Plan Received -->
<g id="node6" class="node">
<title>Check Plan Received</title>
<ellipse fill="gray" stroke="black" cx="459.3" cy="-18" rx="53.23" ry="18"/>
<text text-anchor="middle" x="459.3" y="-15.8" font-family="Times,serif" font-size="9.00">Check Plan Received</text>
</g>
<!-- Navigate Waypoints Sequence&#45;&gt;Check Plan Received -->
<g id="edge5" class="edge">
<title>Navigate Waypoints Sequence&#45;&gt;Check Plan Received</title>
<path fill="none" stroke="black" d="M421.66,-71.7C427.62,-63.35 434.88,-53.18 441.43,-44.02"/>
<polygon fill="black" stroke="black" points="444.46,-45.79 447.43,-35.62 438.77,-41.73 444.46,-45.79"/>
</g>
<!-- Filter Waypoints -->
<g id="node7" class="node">
<title>Filter Waypoints</title>
<ellipse fill="gray" stroke="black" cx="574.3" cy="-18" rx="43.76" ry="18"/>
<text text-anchor="middle" x="574.3" y="-15.8" font-family="Times,serif" font-size="9.00">Filter Waypoints</text>
</g>
<!-- Navigate Waypoints Sequence&#45;&gt;Filter Waypoints -->
<g id="edge6" class="edge">
<title>Navigate Waypoints Sequence&#45;&gt;Filter Waypoints</title>
<path fill="none" stroke="black" d="M449.66,-71.88C475.81,-60.79 509.66,-46.42 535.49,-35.47"/>
<polygon fill="black" stroke="black" points="537.12,-38.57 544.96,-31.45 534.39,-32.13 537.12,-38.57"/>
</g>
<!-- Visualize Waypoints -->
<g id="node8" class="node">
<title>Visualize Waypoints</title>
<ellipse fill="gray" stroke="black" cx="687.3" cy="-18" rx="51.27" ry="18"/>
<text text-anchor="middle" x="687.3" y="-15.8" font-family="Times,serif" font-size="9.00">Visualize Waypoints</text>
</g>
<!-- Navigate Waypoints Sequence&#45;&gt;Visualize Waypoints -->
<g id="edge7" class="edge">
<title>Navigate Waypoints Sequence&#45;&gt;Visualize Waypoints</title>
<path fill="none" stroke="black" d="M477.71,-73.07C520.75,-62.87 577.39,-49.13 627.3,-36 631.14,-34.99 635.1,-33.92 639.09,-32.83"/>
<polygon fill="black" stroke="black" points="640.25,-36.14 648.95,-30.1 638.38,-29.4 640.25,-36.14"/>
</g>
<!-- Navigate Through Waypoints -->
<g id="node9" class="node">
<title>Navigate Through Waypoints</title>
<polygon fill="orange" stroke="black" points="889.8,-36 756.8,-36 756.8,0 889.8,0 889.8,-36"/>
<text text-anchor="middle" x="823.3" y="-15.8" font-family="Times,serif" font-size="9.00">Ⓜ Navigate Through Waypoints</text>
</g>
<!-- Navigate Waypoints Sequence&#45;&gt;Navigate Through Waypoints -->
<g id="edge8" class="edge">
<title>Navigate Waypoints Sequence&#45;&gt;Navigate Through Waypoints</title>
<path fill="none" stroke="black" d="M477.5,-79.62C543.72,-70.22 647.29,-54.73 746.71,-36.05"/>
<polygon fill="black" stroke="black" points="747.45,-39.47 756.62,-34.17 746.15,-32.59 747.45,-39.47"/>
</g>
</g>
</svg>
